solid Eyebrows
facet normal 0.0 0.0 -1.0
outer loop
vertex 93.93466269807278 -105.35987125557071 0.0
vertex 124.34648888440287 -96.54492189469369 0.0
vertex 92.31419735143237 -112.72559666059824 0.0
endloop
endfacet
facet normal 0.0 0.0 -1.0
outer loop
vertex 124.34648888440287 -96.54492189469369 0.0
vertex 93.93466269807278 -105.35987125557071 0.0
vertex 125.47210201133528 -86.96032453544495 0.0
endloop
endfacet
facet normal -0.0 -0.0 1.0
outer loop
vertex 124.34648888440287 -96.54492189469369 0.65
vertex 93.93466269807278 -105.35987125557071 0.65
vertex 92.31419735143237 -112.72559666059824 0.65
endloop
endfacet
facet normal -0.0 -0.0 1.0
outer loop
vertex 93.93466269807278 -105.35987125557071 0.65
vertex 124.34648888440287 -96.54492189469369 0.65
vertex 125.47210201133528 -86.96032453544495 0.65
endloop
endfacet
facet normal -0.9766443065082886 0.2148625108411054 0.0
outer loop
vertex 93.93466269807278 -105.35987125557071 0.65
vertex 92.31419735143237 -112.72559666059824 0.0
vertex 92.31419735143237 -112.72559666059824 0.65
endloop
endfacet
facet normal -0.9766443065082886 0.2148625108411054 0.0
outer loop
vertex 92.31419735143237 -112.72559666059824 0.0
vertex 93.93466269807278 -105.35987125557071 0.65
vertex 93.93466269807278 -105.35987125557071 0.0
endloop
endfacet
facet normal -0.5039263432899916 0.8637466298275075 0.0
outer loop
vertex 93.93466269807278 -105.35987125557071 0.65
vertex 125.47210201133528 -86.96032453544495 0.0
vertex 93.93466269807278 -105.35987125557071 0.0
endloop
endfacet
facet normal -0.5039263432899916 0.8637466298275075 0.0
outer loop
vertex 125.47210201133528 -86.96032453544495 0.0
vertex 93.93466269807278 -105.35987125557071 0.65
vertex 125.47210201133528 -86.96032453544495 0.65
endloop
endfacet
facet normal 0.9931744707642586 -0.11663820395622973 0.0
outer loop
vertex 125.47210201133528 -86.96032453544495 0.0
vertex 124.34648888440287 -96.54492189469369 0.65
vertex 124.34648888440287 -96.54492189469369 0.0
endloop
endfacet
facet normal 0.9931744707642586 -0.11663820395622973 0.0
outer loop
vertex 124.34648888440287 -96.54492189469369 0.65
vertex 125.47210201133528 -86.96032453544495 0.0
vertex 125.47210201133528 -86.96032453544495 0.65
endloop
endfacet
facet normal 0.45087754068942976 -0.8925858184521259 0.0
outer loop
vertex 124.34648888440287 -96.54492189469369 0.65
vertex 92.31419735143237 -112.72559666059824 0.0
vertex 124.34648888440287 -96.54492189469369 0.0
endloop
endfacet
facet normal 0.45087754068942976 -0.8925858184521259 0.0
outer loop
vertex 92.31419735143237 -112.72559666059824 0.0
vertex 124.34648888440287 -96.54492189469369 0.65
vertex 92.31419735143237 -112.72559666059824 0.65
endloop
endfacet
endsolid Eyebrows
